<?xml version="1.0" encoding="iso-8859-1"?>
<!-- Generator: Adobe Illustrator 19.0.0, SVG Export Plug-In . SVG Version: 6.00 Build 0)  -->
<svg xmlns="http://www.w3.org/2000/svg" xmlns:xlink="http://www.w3.org/1999/xlink" version="1.1" id="Capa_1" x="0px" y="0px" viewBox="0 0 512.012 512.012" style="enable-background:new 0 0 512.012 512.012;" xml:space="preserve" width="512" height="512">
<g>
	<polygon style="fill:#739AD6;" points="168.613,132.166 132.141,140.423 227.756,322.092 227.756,144.012  "/>
	<path style="fill:#A4CCFF;" d="M231.233,322.092l72.701,64.443c4.441,4.441,12.018,2.495,13.77-3.537l70.425-242.575H226.146   L231.233,322.092z"/>
	<path style="fill:#DBEAFF;" d="M381.706,132.166L282.408,4.496c-4.871-6.262-14.441-5.929-18.863,0.658l-87.054,127.011H381.706z"/>
	<path style="fill:#C3DDFF;" d="M239.491,107.393L271.022,0.208c-2.897,0.559-5.646,2.22-7.477,4.947l-70.074,102.238H239.491z"/>
	<path style="fill:#C3DDFF;" d="M275.684,75.976c-3.102-3.659-8.659-3.914-12.083-0.553l-65.399,65.001l125.091-8.293   L275.684,75.976z"/>
	<path style="fill:#8BB3EA;" d="M206.46,140.423l23.822,318.893c0.631,7.572,2.304,15.022,4.973,22.137l9.226,24.604   c3.255,8.679,15.866,7.583,17.574-1.528l68.27-364.105H206.46z"/>
	<path style="fill:#A4CCFF;" d="M282.843,140.423l-37.296,367.706c4.322,6.372,14.949,4.713,16.508-3.601l68.27-364.105H282.843z"/>
	<path style="fill:#A4CCFF;" d="M264.264,132.166l-49.088-76.889c-3.005-4.808-9.852-5.227-13.42-0.82l-69.614,85.967h129.645   L264.264,132.166z"/>
	<path style="fill:#739AD6;" d="M386.024,148.681c-12.362,0-18.878-2.48-24.628-4.669c-5.064-1.923-9.435-3.589-18.765-3.589   c-9.314,0-13.685,1.661-18.733,3.589c-5.75,2.189-12.266,4.669-24.628,4.669c-12.354,0-18.862-2.48-24.604-4.669   c-5.048-1.927-9.411-3.589-18.717-3.589c-9.322,0-13.685,1.661-18.733,3.589c-5.75,2.189-12.257,4.669-24.612,4.669   s-18.862-2.48-24.612-4.669c-5.048-1.927-9.411-3.589-18.725-3.589c-9.314,0-13.677,1.661-18.725,3.589   c-5.75,2.189-12.257,4.669-24.612,4.669s-18.862-2.48-24.612-4.669c-5.048-1.927-9.411-3.589-18.725-3.589   c-4.564,0-8.258-3.697-8.258-8.258s3.693-8.258,8.258-8.258c12.354,0,18.862,2.48,24.612,4.669   c5.048,1.927,9.411,3.589,18.725,3.589s13.677-1.661,18.725-3.589c5.75-2.189,12.257-4.669,24.612-4.669   c12.354,0,18.862,2.48,24.612,4.669c5.048,1.927,9.411,3.589,18.725,3.589c9.314,0,13.677-1.661,18.725-3.589   c5.75-2.189,12.257-4.669,24.62-4.669c12.354,0,18.862,2.48,24.604,4.669c5.048,1.927,9.411,3.589,18.717,3.589   c9.322,0,13.693-1.661,18.749-3.589c5.742-2.189,12.257-4.669,24.612-4.669c12.37,0,18.886,2.48,24.636,4.669   c5.064,1.927,9.427,3.589,18.757,3.589s13.701-1.665,18.765-3.589c5.75-2.189,12.266-4.669,24.628-4.669   c4.564,0,8.258,3.697,8.258,8.258s-3.693,8.258-8.258,8.258c-9.33,0-13.693,1.661-18.757,3.589   C404.91,146.201,398.394,148.681,386.024,148.681z"/>
</g>















</svg>
